<svg width="249" height="44" viewBox="0 0 249 44" fill="none" xmlns="http://www.w3.org/2000/svg">
<path d="M32.4946 33.2682V29.253L21.9524 39.7953C20.7783 40.0356 19.563 40.162 18.3178 40.162C16.4109 40.162 14.5732 39.8659 12.8479 39.3166C5.56921 37.0012 0.296387 30.1867 0.296387 22.1405C0.296387 12.1874 8.36469 4.11914 18.3178 4.11914C27.1045 4.11914 34.4222 10.4069 36.0167 18.7285C36.2282 19.8333 36.3392 20.9737 36.3392 22.1405C36.3392 26.3403 34.9028 30.204 32.4946 33.2682Z" fill="#056A67"/>
<path d="M37.9065 18.2227V38.4893H32.4769V28.9954L21.9363 39.7864C20.7624 40.0324 19.5472 40.1618 18.3023 40.1618C16.3957 40.1618 14.5582 39.8587 12.8333 39.2965L27.9886 23.7812H17.3893V18.2227H37.9065Z" fill="#37ED81"/>
<path d="M47.2179 22.8623H48.9883V26.2763C48.5127 26.6326 47.9783 26.9014 47.4097 27.0705C46.8259 27.2539 46.2179 27.3477 45.6062 27.3488C44.7912 27.363 43.9857 27.1703 43.2643 26.7884C42.5879 26.4329 42.0225 25.896 41.6304 25.2373C41.2437 24.5544 41.0403 23.7819 41.0403 22.9959C41.0403 22.2099 41.2437 21.4374 41.6304 20.7545C42.0231 20.0914 42.5931 19.5526 43.2753 19.1996C44.005 18.8186 44.8174 18.626 45.6394 18.6393C46.3222 18.631 47 18.757 47.6347 19.0103C48.2152 19.2472 48.732 19.6184 49.1432 20.0939L47.9003 21.248C47.625 20.9478 47.2899 20.7093 46.9169 20.5482C46.5438 20.3871 46.1412 20.3069 45.7353 20.3129C45.2412 20.3026 44.7526 20.4188 44.3154 20.6506C43.9053 20.8618 43.5646 21.1879 43.3343 21.5894C43.1061 22.0213 42.9867 22.503 42.9867 22.9922C42.9867 23.4813 43.1061 23.963 43.3343 24.3949C43.5601 24.7972 43.8937 25.1276 44.2969 25.3486C44.7278 25.5841 45.2119 25.703 45.7021 25.6937C46.2265 25.6971 46.7435 25.5696 47.2069 25.3226L47.2179 22.8623ZM53.3292 20.8807C53.7454 20.7135 54.1905 20.6315 54.6385 20.6394V22.3687C54.4319 22.3687 54.2918 22.3465 54.2217 22.3465C53.9935 22.3328 53.7648 22.3655 53.5494 22.4427C53.3339 22.5198 53.1361 22.6398 52.9678 22.7955C52.8043 22.9783 52.6795 23.1926 52.6008 23.4255C52.5222 23.6583 52.4915 23.9048 52.5104 24.15V27.2041H50.6664V20.7359H52.4477V21.5894C52.6706 21.2756 52.9758 21.0302 53.3292 20.8807ZM56.9288 26.8738C56.4073 26.6047 55.9706 26.1948 55.6675 25.69C55.3703 25.1661 55.2139 24.5733 55.2139 23.97C55.2139 23.3667 55.3703 22.7739 55.6675 22.25C55.969 21.7411 56.4059 21.3272 56.9288 21.0551C57.4943 20.7743 58.1165 20.6282 58.7471 20.6282C59.3777 20.6282 59.9998 20.7743 60.5653 21.0551C61.084 21.3255 61.5181 21.7352 61.8193 22.2389C62.119 22.7619 62.2768 23.3551 62.2768 23.9589C62.2768 24.5626 62.119 25.1558 61.8193 25.6789C61.5181 26.1825 61.084 26.5922 60.5653 26.8627C59.9998 27.1435 59.3777 27.2895 58.7471 27.2895C58.1165 27.2895 57.4943 27.1435 56.9288 26.8627V26.8738ZM59.931 25.2744C60.2262 24.9067 60.3872 24.4483 60.3872 23.9756C60.3872 23.5029 60.2262 23.0445 59.931 22.6767C59.7819 22.5118 59.5994 22.3811 59.3958 22.2934C59.1922 22.2057 58.9722 22.163 58.7508 22.1683C58.5305 22.1609 58.3112 22.2003 58.1072 22.2841C57.9031 22.3679 57.719 22.4941 57.5669 22.6545C57.2691 23.021 57.1064 23.4799 57.1064 23.9533C57.1064 24.4267 57.2691 24.8856 57.5669 25.2521C57.7194 25.4119 57.9036 25.5378 58.1076 25.6215C58.3115 25.7053 58.5306 25.745 58.7508 25.7383C58.9688 25.7483 59.1865 25.7122 59.3898 25.6323C59.5931 25.5524 59.7774 25.4305 59.931 25.2744ZM73.6656 20.7359L71.3384 27.2041H69.5459L68.1002 23.1888L66.6028 27.2041H64.8104L62.4942 20.7359H64.2498L65.7693 25.1111L67.3441 20.7359H68.9226L70.4532 25.1111L72.017 20.7359H73.6656ZM78.8659 26.8924C78.6621 27.036 78.4331 27.1393 78.1909 27.1966C77.915 27.2676 77.6311 27.3025 77.3464 27.3006C76.7015 27.3415 76.0659 27.1301 75.5724 26.7105C75.3529 26.4828 75.1837 26.2111 75.0756 25.9131C74.9676 25.6152 74.9232 25.2976 74.9454 24.9812V22.3242H73.9459V20.8807H74.938V19.3035H76.8042V20.8807H78.4049V22.3242H76.8042V24.9552C76.788 25.1847 76.8622 25.4113 77.0107 25.5861C77.0885 25.6632 77.1816 25.723 77.284 25.7613C77.3863 25.7997 77.4955 25.8159 77.6045 25.8088C77.8703 25.814 78.1302 25.729 78.3422 25.5676L78.8659 26.8924ZM85.7479 21.3594C86.2397 21.8418 86.4856 22.5555 86.4856 23.5006V27.2115H84.6415V23.7974C84.6719 23.3857 84.5526 22.9769 84.3059 22.6471C84.1808 22.5179 84.0291 22.4178 83.8616 22.3537C83.6941 22.2896 83.5147 22.2631 83.3359 22.276C83.1311 22.2682 82.9269 22.3035 82.7364 22.3795C82.5459 22.4555 82.3733 22.5707 82.2295 22.7176C82.0721 22.8945 81.951 23.101 81.8732 23.3252C81.7953 23.5493 81.7622 23.7867 81.7758 24.0238V27.2226H79.9317V18.3164H81.7758V21.4262C82.0305 21.1734 82.3361 20.9785 82.672 20.8547C83.0398 20.7212 83.4281 20.6546 83.819 20.658C84.1707 20.6408 84.5222 20.6939 84.8533 20.8143C85.1844 20.9347 85.4885 21.12 85.7479 21.3594ZM42.4455 39.9808C41.9361 39.8268 41.4648 39.5663 41.0624 39.2163L41.505 38.2775C41.8643 38.5896 42.28 38.829 42.7295 38.9825C43.2229 39.1611 43.7431 39.2527 44.2674 39.2534C44.8101 39.2866 45.3503 39.1575 45.8201 38.8823C45.9777 38.7815 46.1073 38.6422 46.197 38.4774C46.2866 38.3126 46.3333 38.1276 46.3328 37.9398C46.3379 37.809 46.3156 37.6787 46.2673 37.5572C46.219 37.4357 46.1458 37.3258 46.0525 37.2347C45.8547 37.0463 45.6179 36.9044 45.3591 36.8191C45.0862 36.7226 44.6953 36.615 44.1937 36.4962C43.6766 36.3776 43.1678 36.2252 42.6705 36.0398C42.288 35.8889 41.9476 35.647 41.6784 35.3347C41.3862 34.9707 41.2389 34.5104 41.2653 34.0433C41.2645 33.6107 41.393 33.1879 41.6341 32.8298C41.9001 32.4437 42.2716 32.1433 42.7037 31.9652C43.2678 31.7306 43.875 31.6193 44.485 31.6386C44.977 31.6379 45.4669 31.7028 45.9419 31.8316C46.3819 31.9408 46.799 32.128 47.1737 32.3845L46.7791 33.3456C46.4294 33.1236 46.0508 32.9512 45.6542 32.8335C45.2745 32.7207 44.8809 32.662 44.485 32.6591C43.9513 32.621 43.4191 32.7507 42.9618 33.0302C42.804 33.1349 42.6747 33.2777 42.5858 33.4456C42.4969 33.6135 42.4512 33.8011 42.4529 33.9913C42.4482 34.1227 42.4715 34.2535 42.5211 34.3751C42.5707 34.4967 42.6455 34.6062 42.7405 34.6964C42.9466 34.884 43.1889 35.0268 43.4524 35.1158C43.8296 35.2438 44.2138 35.3504 44.6031 35.4349C45.1144 35.5554 45.6171 35.7104 46.1078 35.8988C46.4861 36.0499 46.8236 36.289 47.0925 36.5964C47.3825 36.9501 47.5299 37.4003 47.5056 37.8581C47.5048 38.2893 47.3764 38.7104 47.1368 39.0679C46.8606 39.4594 46.4757 39.7602 46.0304 39.9325C45.4606 40.1602 44.8507 40.2688 44.2379 40.2517C43.6299 40.2582 43.0248 40.1668 42.4455 39.9808ZM51.297 39.8286C50.8022 39.5579 50.3902 39.1563 50.1058 38.6671C49.8278 38.1549 49.6822 37.5807 49.6822 36.9972C49.6822 36.4136 49.8278 35.8394 50.1058 35.3273C50.3905 34.8403 50.8026 34.4411 51.297 34.1732C51.8288 33.8921 52.4225 33.7504 53.0231 33.7613C53.555 33.7513 54.0814 33.871 54.5573 34.1101C54.9995 34.3328 55.3646 34.6846 55.6048 35.1195L54.7307 35.6835C54.5486 35.3938 54.2943 35.1571 53.9931 34.997C53.6901 34.8435 53.3549 34.7658 53.0157 34.7706C52.6297 34.7664 52.249 34.8609 51.9093 35.0452C51.5812 35.2282 51.3113 35.501 51.1311 35.832C50.9392 36.1922 50.8427 36.596 50.8508 37.0046C50.8415 37.4181 50.938 37.827 51.1311 38.1921C51.3113 38.5231 51.5812 38.7959 51.9093 38.9788C52.2484 39.1649 52.6295 39.2595 53.0157 39.2534C53.3549 39.2583 53.6901 39.1806 53.9931 39.0271C54.2943 38.867 54.5486 38.6303 54.7307 38.3405L55.6195 38.8675C55.3776 39.3029 55.0132 39.6566 54.5721 39.8843C54.0986 40.1327 53.5718 40.2601 53.0378 40.2554C52.4342 40.2606 51.8396 40.1084 51.3118 39.8138L51.297 39.8286ZM63.4974 34.4478C63.7485 34.7254 63.9411 35.0514 64.0635 35.406C64.1858 35.7607 64.2354 36.1366 64.2092 36.5111V40.1775H63.0622V36.6409C63.0997 36.1369 62.941 35.6379 62.6196 35.2493C62.4529 35.0856 62.2537 34.959 62.0351 34.8778C61.8165 34.7966 61.5834 34.7626 61.3509 34.7781C61.0806 34.7623 60.8101 34.8029 60.5562 34.8974C60.3023 34.9919 60.0706 35.1383 59.8756 35.3273C59.6866 35.539 59.5416 35.7866 59.4492 36.0555C59.3567 36.3245 59.3186 36.6093 59.3372 36.8933V40.1775H58.1902V31.2712H59.3372V34.7224C59.5894 34.3968 59.921 34.1424 60.2998 33.9839C60.7103 33.8097 61.1525 33.7238 61.598 33.7316C61.9474 33.7143 62.2967 33.7675 62.6254 33.8879C62.9541 34.0083 63.2556 34.1936 63.5121 34.4329L63.4974 34.4478ZM68.5833 39.8286C68.0908 39.5586 67.6823 39.1566 67.4031 38.6671C67.1275 38.1542 66.9831 37.5803 66.9831 36.9972C66.9831 36.4141 67.1275 35.8402 67.4031 35.3273C67.6826 34.84 68.0912 34.4404 68.5833 34.1732C69.1067 33.9011 69.6871 33.7592 70.2762 33.7592C70.8652 33.7592 71.4457 33.9011 71.969 34.1732C72.4575 34.4427 72.8632 34.8419 73.1419 35.3273C73.4176 35.8402 73.5619 36.4141 73.5619 36.9972C73.5619 37.5803 73.4176 38.1542 73.1419 38.6671C72.8635 39.1546 72.4579 39.5563 71.969 39.8286C71.4467 40.104 70.8659 40.2478 70.2762 40.2478C69.6865 40.2478 69.1057 40.104 68.5833 39.8286ZM71.3716 38.9566C71.694 38.769 71.9573 38.4937 72.1313 38.1624C72.3108 37.7979 72.4041 37.3966 72.4041 36.9898C72.4041 36.583 72.3108 36.1817 72.1313 35.8171C71.957 35.4879 71.6936 35.2152 71.3716 35.0304C71.0349 34.8501 70.6594 34.7558 70.278 34.7558C69.8967 34.7558 69.5211 34.8501 69.1845 35.0304C68.8631 35.2171 68.5989 35.4893 68.4211 35.8171C68.2368 36.1802 68.1408 36.5821 68.1408 36.9898C68.1408 37.3975 68.2368 37.7993 68.4211 38.1624C68.5986 38.4924 68.8627 38.7671 69.1845 38.9566C69.5196 39.1417 69.8957 39.2388 70.278 39.2388C70.6603 39.2388 71.0365 39.1417 71.3716 38.9566ZM77.3648 39.8286C76.8733 39.5585 76.466 39.1564 76.1883 38.6671C75.9126 38.1542 75.7683 37.5803 75.7683 36.9972C75.7683 36.4141 75.9126 35.8402 76.1883 35.3273C76.4665 34.8402 76.8738 34.4406 77.3648 34.1732C77.8892 33.9026 78.4701 33.7615 79.0595 33.7615C79.6489 33.7615 80.2298 33.9026 80.7542 34.1732C81.2415 34.443 81.6459 34.8422 81.9233 35.3273C82.199 35.8402 82.3434 36.4141 82.3434 36.9972C82.3434 37.5803 82.199 38.1542 81.9233 38.6671C81.6463 39.1544 81.2419 39.556 80.7542 39.8286C80.2312 40.104 79.6498 40.2478 79.0595 40.2478C78.4692 40.2478 77.8878 40.104 77.3648 39.8286ZM80.1567 38.9566C80.478 38.7688 80.7401 38.4935 80.9128 38.1624C81.0956 37.7989 81.1908 37.3972 81.1908 36.9898C81.1908 36.5824 81.0956 36.1807 80.9128 35.8171C80.7398 35.4882 80.4776 35.2154 80.1567 35.0304C79.8181 34.8432 79.4366 34.7486 79.0503 34.7558C78.6638 34.7475 78.2821 34.8423 77.9438 35.0304C77.6206 35.216 77.3549 35.4884 77.1767 35.8171C76.9925 36.1802 76.8964 36.5821 76.8964 36.9898C76.8964 37.3975 76.9925 37.7993 77.1767 38.1624C77.3728 38.496 77.6594 38.7663 78.0028 38.9417C78.3391 39.1357 78.7218 39.2332 79.1093 39.2237C79.4817 39.2242 79.8478 39.127 80.1715 38.9417L80.1567 38.9566ZM85.132 31.2564H86.279V40.1626H85.132V31.2564Z" fill="black"/>
<path d="M97.9189 1.125L97.9189 43.2481" stroke="black" stroke-width="1.20352" stroke-linecap="round"/>
<rect x="109.653" y="1.4708" width="138.749" height="41.4334" rx="5.7167" stroke="black" stroke-width="0.601758"/>
<path d="M115.37 33.9218V10.4507C115.446 10.0454 115.569 9.66238 115.854 9.34603C116.323 8.82544 116.919 8.64117 117.601 8.64117C123.544 8.64434 129.488 8.64298 135.431 8.64298C137.07 8.64298 138.708 8.63617 140.347 8.6457C141.617 8.65297 142.462 9.48945 142.462 10.7485C142.466 18.3681 142.466 25.9877 142.462 33.6073C142.462 34.7233 141.835 35.4699 140.738 35.6969C140.694 35.706 140.651 35.7214 140.608 35.7336H117.228C116.883 35.6547 116.542 35.5712 116.244 35.3642C115.736 35.012 115.478 34.5132 115.37 33.9213V33.9218ZM125.939 25.2542C125.939 27.2553 125.939 29.2564 125.939 31.2576C125.939 31.5444 126.085 31.688 126.379 31.6883C127.429 31.6883 128.478 31.6883 129.528 31.6883C129.904 31.6883 129.908 31.6847 129.909 31.3098C129.909 29.2256 129.905 27.1414 129.914 25.0572C129.916 24.4436 129.984 23.8354 130.226 23.2608C130.485 22.6422 130.929 22.2174 131.59 22.078C133.118 21.7558 134.128 22.2818 134.362 23.8903C134.419 24.2793 134.447 24.6705 134.447 25.0636C134.447 27.1627 134.447 29.2619 134.447 31.3615C134.447 31.671 134.463 31.6874 134.762 31.6878C135.88 31.6887 136.998 31.6887 138.115 31.6878C138.415 31.6878 138.43 31.672 138.43 31.3615C138.431 30.1683 138.439 28.975 138.428 27.7823C138.415 26.28 138.482 24.7767 138.381 23.2758C138.327 22.4584 138.19 21.6564 137.87 20.8948C137.433 19.8536 136.693 19.1406 135.612 18.7888C134.957 18.576 134.286 18.5024 133.602 18.5124C132.049 18.5356 130.788 19.1165 129.92 20.4454C129.892 20.4877 129.871 20.5548 129.808 20.5403C129.732 20.5231 129.741 20.4464 129.741 20.3896C129.737 19.982 129.739 19.574 129.737 19.1664C129.735 18.8542 129.712 18.8297 129.401 18.8292C128.374 18.8279 127.347 18.8283 126.32 18.8288C125.941 18.8288 125.938 18.8324 125.938 19.2059C125.938 21.222 125.938 23.2381 125.938 25.2547L125.939 25.2542ZM123.389 25.2733C123.389 23.2431 123.389 21.2129 123.389 19.1828C123.389 18.8483 123.371 18.8292 123.051 18.8288C121.949 18.8279 120.847 18.8279 119.745 18.8288C119.439 18.8288 119.417 18.8496 119.417 19.1451C119.417 23.2204 119.417 27.2957 119.417 31.371C119.417 31.6701 119.436 31.6874 119.744 31.6874C120.838 31.6883 121.932 31.6883 123.026 31.6874C123.387 31.6874 123.389 31.6847 123.39 31.3179C123.39 29.3027 123.39 27.288 123.39 25.2728L123.389 25.2733ZM121.408 17.0228C122.689 17.0269 123.737 15.9912 123.742 14.7171C123.747 13.4613 122.699 12.4119 121.433 12.4047C120.153 12.3969 119.103 13.439 119.106 14.7149C119.11 15.9925 120.133 17.0187 121.408 17.0228Z" fill="black"/>
<path d="M150.585 18.1875V10.627H151.452V17.4293H154.322V18.1875H150.585ZM155.829 11.2444C155.49 11.2444 155.32 11.0964 155.32 10.8003V10.627C155.32 10.3309 155.49 10.1829 155.829 10.1829C156.168 10.1829 156.338 10.3309 156.338 10.627V10.8003C156.338 11.0964 156.168 11.2444 155.829 11.2444ZM155.417 12.5984H156.241V18.1875H155.417V12.5984ZM157.882 18.1875V12.5984H158.705V13.5082H158.813C158.922 13.1616 159.088 12.9017 159.312 12.7283C159.543 12.555 159.853 12.4684 160.243 12.4684C160.742 12.4684 161.131 12.6381 161.413 12.9775C161.702 13.3169 161.846 13.8404 161.846 14.5481V18.1875H161.023V14.6022C161.023 14.1545 160.929 13.8115 160.742 13.5732C160.561 13.3349 160.279 13.2158 159.897 13.2158C159.564 13.2158 159.283 13.3169 159.052 13.5191C158.821 13.7212 158.705 14.0065 158.705 14.3748V18.1875H157.882ZM163.435 10.1721H164.258V14.2881L164.194 15.3821H164.28L165.06 14.3314L166.457 12.5984H167.454L165.602 14.8189L167.616 18.1875H166.631L164.995 15.3063L164.258 16.1728V18.1875H163.435V10.1721ZM170.408 18.3175C170.083 18.3175 169.78 18.2633 169.499 18.155C169.217 18.0467 168.975 17.8734 168.773 17.6351C168.571 17.3968 168.412 17.0935 168.296 16.7252C168.181 16.357 168.123 15.9129 168.123 15.3929C168.123 14.873 168.181 14.4289 168.296 14.0606C168.412 13.6924 168.571 13.3891 168.773 13.1508C168.975 12.9125 169.217 12.7392 169.499 12.6309C169.78 12.5225 170.083 12.4684 170.408 12.4684C170.733 12.4684 171.029 12.5225 171.297 12.6309C171.571 12.7392 171.802 12.9125 171.99 13.1508C172.178 13.3891 172.322 13.6924 172.423 14.0606C172.531 14.4289 172.586 14.873 172.586 15.3929V15.5987H169V15.9562C169 16.505 169.123 16.9166 169.369 17.191C169.621 17.4582 169.968 17.5918 170.408 17.5918C170.784 17.5918 171.091 17.5123 171.329 17.3535C171.567 17.1874 171.755 16.9419 171.892 16.6169L172.456 17.0285C172.282 17.4112 172.026 17.7217 171.687 17.96C171.354 18.1983 170.928 18.3175 170.408 18.3175ZM170.408 13.1616C169.961 13.1616 169.614 13.3024 169.369 13.584C169.123 13.8657 169 14.2809 169 14.8297V14.9705H171.708V14.8297C171.708 13.7176 171.275 13.1616 170.408 13.1616ZM177.071 17.2776H176.963C176.855 17.6459 176.678 17.9131 176.432 18.0792C176.194 18.238 175.901 18.3175 175.555 18.3175C175.223 18.3175 174.93 18.2489 174.677 18.1117C174.425 17.9745 174.212 17.7795 174.038 17.5268C173.865 17.274 173.735 16.9671 173.648 16.6061C173.562 16.245 173.518 15.8406 173.518 15.3929C173.518 14.9452 173.562 14.5408 173.648 14.1798C173.735 13.8187 173.865 13.5118 174.038 13.2591C174.212 13.0064 174.425 12.8114 174.677 12.6742C174.93 12.537 175.223 12.4684 175.555 12.4684C175.901 12.4684 176.194 12.5514 176.432 12.7175C176.678 12.8764 176.855 13.14 176.963 13.5082H177.071V10.1721H177.894V18.1875H177.071V17.2776ZM175.804 17.5809C175.977 17.5809 176.14 17.5557 176.291 17.5051C176.45 17.4546 176.584 17.3823 176.692 17.2885C176.808 17.1946 176.898 17.0827 176.963 16.9527C177.035 16.8227 177.071 16.6783 177.071 16.5194V14.2664C177.071 14.1076 177.035 13.9632 176.963 13.8332C176.898 13.7032 176.808 13.5913 176.692 13.4974C176.584 13.4035 176.45 13.3313 176.291 13.2808C176.14 13.2302 175.977 13.2049 175.804 13.2049C175.349 13.2049 175.002 13.3494 174.764 13.6382C174.526 13.9198 174.407 14.317 174.407 14.8297V15.9562C174.407 16.4689 174.526 16.8696 174.764 17.1585C175.002 17.4401 175.349 17.5809 175.804 17.5809ZM179.296 18.1875V17.4726H180.249V11.3419H179.296V10.627H182.069V11.3419H181.116V17.4726H182.069V18.1875H179.296ZM183.47 18.1875V12.5984H184.293V13.5082H184.401C184.509 13.1616 184.676 12.9017 184.899 12.7283C185.13 12.555 185.441 12.4684 185.831 12.4684C186.329 12.4684 186.719 12.6381 187.001 12.9775C187.29 13.3169 187.434 13.8404 187.434 14.5481V18.1875H186.611V14.6022C186.611 14.1545 186.517 13.8115 186.329 13.5732C186.149 13.3349 185.867 13.2158 185.484 13.2158C185.152 13.2158 184.871 13.3169 184.639 13.5191C184.408 13.7212 184.293 14.0065 184.293 14.3748V18.1875H183.47Z" fill="black"/>
<path d="M153.78 26.7444V34.1875H152.201V26.7444H149.989V25.3669H156.004V26.7444H153.78ZM158.807 34.3391C157.931 34.3391 157.248 34.0611 156.76 33.5051C156.279 32.9491 156.039 32.0771 156.039 30.8893C156.039 29.7014 156.279 28.8294 156.76 28.2734C157.248 27.7174 157.931 27.4394 158.807 27.4394C159.683 27.4394 160.361 27.7174 160.841 28.2734C161.33 28.8294 161.574 29.7014 161.574 30.8893C161.574 32.0771 161.33 32.9491 160.841 33.5051C160.361 34.0611 159.683 34.3391 158.807 34.3391ZM158.807 33.1007C159.582 33.1007 159.969 32.6458 159.969 31.7359V30.0426C159.969 29.1327 159.582 28.6778 158.807 28.6778C158.032 28.6778 157.644 29.1327 157.644 30.0426V31.7359C157.644 32.6458 158.032 33.1007 158.807 33.1007ZM162.836 27.591H164.365V28.6778H164.542C164.635 28.3071 164.82 28.008 165.098 27.7806C165.385 27.5531 165.717 27.4394 166.096 27.4394C166.872 27.4394 167.444 27.7342 167.815 28.324C168.186 28.9053 168.371 29.7604 168.371 30.8893C168.371 32.0182 168.186 32.8775 167.815 33.4672C167.444 34.0485 166.872 34.3391 166.096 34.3391C165.717 34.3391 165.385 34.2254 165.098 33.9979C164.82 33.7705 164.635 33.4714 164.542 33.1007H164.365V36.7149H162.836V27.591ZM165.515 33.0755C165.911 33.0755 166.219 32.9533 166.438 32.709C166.657 32.4647 166.766 32.1193 166.766 31.6728V30.1058C166.766 29.6593 166.657 29.3139 166.438 29.0695C166.219 28.8252 165.911 28.7031 165.515 28.7031C165.17 28.7031 164.892 28.7915 164.681 28.9684C164.471 29.1369 164.365 29.377 164.365 29.6888V32.0898C164.365 32.4015 164.471 32.6458 164.681 32.8227C164.892 32.9912 165.17 33.0755 165.515 33.0755ZM174.953 34.3391C174.296 34.3391 173.715 34.2212 173.209 33.9853C172.712 33.741 172.283 33.3829 171.92 32.9112L172.957 31.9129C173.209 32.2583 173.504 32.5236 173.841 32.709C174.178 32.8859 174.557 32.9744 174.978 32.9744C175.922 32.9744 176.394 32.5447 176.394 31.6854C176.394 31.3316 176.31 31.062 176.141 30.8766C175.973 30.6913 175.695 30.5565 175.307 30.4722L174.536 30.3206C173.736 30.1521 173.146 29.8657 172.767 29.4613C172.388 29.0569 172.198 28.4925 172.198 27.7679C172.198 26.9255 172.447 26.2894 172.944 25.8598C173.449 25.4301 174.165 25.2153 175.092 25.2153C175.724 25.2153 176.263 25.3206 176.71 25.5312C177.165 25.7334 177.552 26.0535 177.872 26.4916L176.836 27.4647C176.617 27.1698 176.369 26.9508 176.09 26.8075C175.812 26.6559 175.471 26.5801 175.067 26.5801C174.62 26.5801 174.292 26.6685 174.081 26.8454C173.871 27.0224 173.765 27.3088 173.765 27.7048C173.765 28.0333 173.845 28.2861 174.005 28.463C174.174 28.6399 174.443 28.7705 174.814 28.8547L175.585 29.019C176.015 29.1117 176.377 29.2254 176.672 29.3602C176.975 29.495 177.219 29.6635 177.405 29.8657C177.599 30.0679 177.738 30.308 177.822 30.586C177.914 30.8556 177.961 31.1757 177.961 31.5464C177.961 32.4562 177.7 33.1513 177.177 33.6315C176.663 34.1033 175.922 34.3391 174.953 34.3391ZM181.069 34.1875C180.538 34.1875 180.155 34.0696 179.919 33.8337C179.683 33.5978 179.565 33.2229 179.565 32.709V28.8168H178.693V27.591H179.148C179.367 27.591 179.515 27.5405 179.591 27.4394C179.675 27.3383 179.717 27.1782 179.717 26.9592V25.7966H181.094V27.591H182.282V28.8168H181.094V32.9617H182.181V34.1875H181.069ZM187.766 34.1875C187.084 34.1875 186.726 33.8126 186.692 33.0628H186.541C186.456 33.4672 186.267 33.7831 185.972 34.0106C185.677 34.2296 185.311 34.3391 184.873 34.3391C184.266 34.3391 183.811 34.1707 183.508 33.8337C183.204 33.4967 183.053 33.0249 183.053 32.4183C183.053 31.7275 183.268 31.2136 183.697 30.8766C184.127 30.5396 184.746 30.3711 185.555 30.3711H186.579V29.8025C186.579 29.415 186.494 29.1285 186.326 28.9432C186.166 28.7578 185.896 28.6652 185.517 28.6652C185.205 28.6652 184.944 28.741 184.734 28.8926C184.523 29.0358 184.338 29.2423 184.178 29.5118L183.28 28.7031C183.525 28.324 183.832 28.0207 184.203 27.7932C184.582 27.5573 185.062 27.4394 185.643 27.4394C187.286 27.4394 188.108 28.2144 188.108 29.7646V32.9617H188.689V34.1875H187.766ZM185.454 33.2145C185.766 33.2145 186.031 33.126 186.25 32.9491C186.469 32.7637 186.579 32.511 186.579 32.1909V31.3189H185.656C184.948 31.3189 184.595 31.5927 184.595 32.1403V32.4183C184.595 32.6963 184.67 32.8985 184.822 33.0249C184.974 33.1513 185.184 33.2145 185.454 33.2145ZM189.875 34.1875V27.591H191.404V28.9432H191.581C191.657 28.5051 191.812 28.1723 192.048 27.9449C192.293 27.709 192.609 27.591 192.996 27.591H193.325V29.158H192.819C192.339 29.158 191.981 29.2338 191.745 29.3855C191.518 29.5371 191.404 29.8025 191.404 30.1816V34.1875H189.875ZM196.322 34.1875C195.791 34.1875 195.408 34.0696 195.172 33.8337C194.936 33.5978 194.818 33.2229 194.818 32.709V28.8168H193.946V27.591H194.401C194.62 27.591 194.768 27.5405 194.844 27.4394C194.928 27.3383 194.97 27.1782 194.97 26.9592V25.7966H196.347V27.591H197.535V28.8168H196.347V32.9617H197.434V34.1875H196.322ZM202.261 33.0755H202.084C201.832 33.9179 201.297 34.3391 200.48 34.3391C199.89 34.3391 199.435 34.1412 199.115 33.7452C198.803 33.3408 198.647 32.7637 198.647 32.0139V27.591H200.176V31.7612C200.176 32.6289 200.496 33.0628 201.137 33.0628C201.448 33.0628 201.714 32.9701 201.933 32.7848C202.152 32.5995 202.261 32.3425 202.261 32.0139V27.591H203.79V34.1875H202.261V33.0755ZM205.461 27.591H206.99V28.6778H207.167C207.26 28.3071 207.445 28.008 207.723 27.7806C208.01 27.5531 208.342 27.4394 208.721 27.4394C209.496 27.4394 210.069 27.7342 210.44 28.324C210.811 28.9053 210.996 29.7604 210.996 30.8893C210.996 32.0182 210.811 32.8775 210.44 33.4672C210.069 34.0485 209.496 34.3391 208.721 34.3391C208.342 34.3391 208.01 34.2254 207.723 33.9979C207.445 33.7705 207.26 33.4714 207.167 33.1007H206.99V36.7149H205.461V27.591ZM208.14 33.0755C208.536 33.0755 208.844 32.9533 209.063 32.709C209.282 32.4647 209.391 32.1193 209.391 31.6728V30.1058C209.391 29.6593 209.282 29.3139 209.063 29.0695C208.844 28.8252 208.536 28.7031 208.14 28.7031C207.795 28.7031 207.517 28.7915 207.306 28.9684C207.095 29.1369 206.99 29.377 206.99 29.6888V32.0898C206.99 32.4015 207.095 32.6458 207.306 32.8227C207.517 32.9912 207.795 33.0755 208.14 33.0755ZM214.785 34.1875V32.9364H215.834V26.618H214.785V25.3669H218.463V26.618H217.414V32.9364H218.463V34.1875H214.785ZM219.9 34.1875V27.591H221.429V28.6904H221.606C221.867 27.8564 222.393 27.4394 223.185 27.4394C223.775 27.4394 224.23 27.6416 224.55 28.046C224.87 28.4419 225.03 29.0106 225.03 29.7519V34.1875H223.501V30.0173C223.501 29.158 223.181 28.7283 222.541 28.7283C222.229 28.7283 221.964 28.821 221.745 29.0064C221.534 29.1833 221.429 29.436 221.429 29.7646V34.1875H219.9ZM230.303 33.1007H230.126C230.033 33.4714 229.844 33.7705 229.557 33.9979C229.279 34.2254 228.951 34.3391 228.572 34.3391C227.796 34.3391 227.224 34.0485 226.853 33.4672C226.482 32.8775 226.297 32.0182 226.297 30.8893C226.297 29.7604 226.482 28.9053 226.853 28.324C227.224 27.7342 227.796 27.4394 228.572 27.4394C228.951 27.4394 229.279 27.5531 229.557 27.7806C229.844 28.008 230.033 28.3071 230.126 28.6778H230.303V24.8362H231.832V34.1875H230.303V33.1007ZM229.153 33.0755C229.498 33.0755 229.776 32.9912 229.987 32.8227C230.197 32.6458 230.303 32.4015 230.303 32.0898V29.6888C230.303 29.377 230.197 29.1369 229.987 28.9684C229.776 28.7915 229.498 28.7031 229.153 28.7031C228.757 28.7031 228.449 28.8252 228.23 29.0695C228.011 29.3139 227.902 29.6593 227.902 30.1058V31.6728C227.902 32.1193 228.011 32.4647 228.23 32.709C228.449 32.9533 228.757 33.0755 229.153 33.0755ZM234.257 26.5548C233.937 26.5548 233.706 26.4874 233.562 26.3526C233.419 26.2094 233.348 26.0198 233.348 25.7839V25.5312C233.348 25.2953 233.419 25.11 233.562 24.9752C233.706 24.832 233.937 24.7604 234.257 24.7604C234.578 24.7604 234.809 24.832 234.952 24.9752C235.096 25.11 235.167 25.2953 235.167 25.5312V25.7839C235.167 26.0198 235.096 26.2094 234.952 26.3526C234.809 26.4874 234.578 26.5548 234.257 26.5548ZM233.499 27.591H235.028V34.1875H233.499V27.591ZM240.98 34.1875C240.297 34.1875 239.939 33.8126 239.906 33.0628H239.754C239.67 33.4672 239.48 33.7831 239.185 34.0106C238.89 34.2296 238.524 34.3391 238.086 34.3391C237.479 34.3391 237.024 34.1707 236.721 33.8337C236.418 33.4967 236.266 33.0249 236.266 32.4183C236.266 31.7275 236.481 31.2136 236.911 30.8766C237.34 30.5396 237.959 30.3711 238.768 30.3711H239.792V29.8025C239.792 29.415 239.708 29.1285 239.539 28.9432C239.379 28.7578 239.109 28.6652 238.73 28.6652C238.419 28.6652 238.157 28.741 237.947 28.8926C237.736 29.0358 237.551 29.2423 237.391 29.5118L236.494 28.7031C236.738 28.324 237.045 28.0207 237.416 27.7932C237.795 27.5573 238.275 27.4394 238.857 27.4394C240.5 27.4394 241.321 28.2144 241.321 29.7646V32.9617H241.902V34.1875H240.98ZM238.667 33.2145C238.979 33.2145 239.244 33.126 239.463 32.9491C239.682 32.7637 239.792 32.511 239.792 32.1909V31.3189H238.869C238.162 31.3189 237.808 31.5927 237.808 32.1403V32.4183C237.808 32.6963 237.884 32.8985 238.035 33.0249C238.187 33.1513 238.398 33.2145 238.667 33.2145Z" fill="black"/>
</svg>
